<?xml version='1.0' encoding='UTF-8'?>
<svg width="500" height="500" version="1.1" viewBox="2 2 33 33" xmlns="http://www.w3.org/2000/svg"><rect x="2" y="2" width="33" height="33" fill="#F8F5F2"/><path d="M2,2H3V3H2zM3,2H4V3H3zM4,2H5V3H4zM5,2H6V3H5zM6,2H7V3H6zM7,2H8V3H7zM8,2H9V3H8zM11,2H12V3H11zM12,2H13V3H12zM16,2H17V3H16zM17,2H18V3H17zM18,2H19V3H18zM19,2H20V3H19zM22,2H23V3H22zM28,2H29V3H28zM29,2H30V3H29zM30,2H31V3H30zM31,2H32V3H31zM32,2H33V3H32zM33,2H34V3H33zM34,2H35V3H34zM2,3H3V4H2zM8,3H9V4H8zM10,3H11V4H10zM11,3H12V4H11zM15,3H16V4H15zM16,3H17V4H16zM17,3H18V4H17zM18,3H19V4H18zM20,3H21V4H20zM23,3H24V4H23zM28,3H29V4H28zM34,3H35V4H34zM2,4H3V5H2zM4,4H5V5H4zM5,4H6V5H5zM6,4H7V5H6zM8,4H9V5H8zM11,4H12V5H11zM12,4H13V5H12zM18,4H19V5H18zM20,4H21V5H20zM21,4H22V5H21zM23,4H24V5H23zM24,4H25V5H24zM25,4H26V5H25zM28,4H29V5H28zM30,4H31V5H30zM31,4H32V5H31zM32,4H33V5H32zM34,4H35V5H34zM2,5H3V6H2zM4,5H5V6H4zM5,5H6V6H5zM6,5H7V6H6zM8,5H9V6H8zM10,5H11V6H10zM11,5H12V6H11zM13,5H14V6H13zM14,5H15V6H14zM15,5H16V6H15zM19,5H20V6H19zM21,5H22V6H21zM22,5H23V6H22zM23,5H24V6H23zM24,5H25V6H24zM25,5H26V6H25zM26,5H27V6H26zM28,5H29V6H28zM30,5H31V6H30zM31,5H32V6H31zM32,5H33V6H32zM34,5H35V6H34zM2,6H3V7H2zM4,6H5V7H4zM5,6H6V7H5zM6,6H7V7H6zM8,6H9V7H8zM13,6H14V7H13zM16,6H17V7H16zM18,6H19V7H18zM22,6H23V7H22zM23,6H24V7H23zM28,6H29V7H28zM30,6H31V7H30zM31,6H32V7H31zM32,6H33V7H32zM34,6H35V7H34zM2,7H3V8H2zM8,7H9V8H8zM10,7H11V8H10zM12,7H13V8H12zM15,7H16V8H15zM16,7H17V8H16zM17,7H18V8H17zM18,7H19V8H18zM19,7H20V8H19zM23,7H24V8H23zM24,7H25V8H24zM28,7H29V8H28zM34,7H35V8H34zM2,8H3V9H2zM3,8H4V9H3zM4,8H5V9H4zM5,8H6V9H5zM6,8H7V9H6zM7,8H8V9H7zM8,8H9V9H8zM10,8H11V9H10zM12,8H13V9H12zM14,8H15V9H14zM16,8H17V9H16zM18,8H19V9H18zM20,8H21V9H20zM22,8H23V9H22zM24,8H25V9H24zM26,8H27V9H26zM28,8H29V9H28zM29,8H30V9H29zM30,8H31V9H30zM31,8H32V9H31zM32,8H33V9H32zM33,8H34V9H33zM34,8H35V9H34zM16,9H17V10H16zM18,9H19V10H18zM21,9H22V10H21zM23,9H24V10H23zM24,9H25V10H24zM25,9H26V10H25zM26,9H27V10H26zM2,10H3V11H2zM3,10H4V11H3zM4,10H5V11H4zM5,10H6V11H5zM6,10H7V11H6zM8,10H9V11H8zM9,10H10V11H9zM10,10H11V11H10zM11,10H12V11H11zM12,10H13V11H12zM13,10H14V11H13zM14,10H15V11H14zM16,10H17V11H16zM19,10H20V11H19zM20,10H21V11H20zM24,10H25V11H24zM26,10H27V11H26zM27,10H28V11H27zM29,10H30V11H29zM31,10H32V11H31zM33,10H34V11H33zM3,11H4V12H3zM5,11H6V12H5zM6,11H7V12H6zM7,11H8V12H7zM11,11H12V12H11zM16,11H17V12H16zM17,11H18V12H17zM18,11H19V12H18zM19,11H20V12H19zM22,11H23V12H22zM23,11H24V12H23zM25,11H26V12H25zM27,11H28V12H27zM28,11H29V12H28zM32,11H33V12H32zM33,11H34V12H33zM34,11H35V12H34zM2,12H3V13H2zM4,12H5V13H4zM6,12H7V13H6zM7,12H8V13H7zM8,12H9V13H8zM9,12H10V13H9zM11,12H12V13H11zM15,12H16V13H15zM16,12H17V13H16zM17,12H18V13H17zM18,12H19V13H18zM20,12H21V13H20zM22,12H23V13H22zM26,12H27V13H26zM27,12H28V13H27zM30,12H31V13H30zM31,12H32V13H31zM33,12H34V13H33zM2,13H3V14H2zM4,13H5V14H4zM5,13H6V14H5zM6,13H7V14H6zM9,13H10V14H9zM10,13H11V14H10zM11,13H12V14H11zM12,13H13V14H12zM13,13H14V14H13zM17,13H18V14H17zM18,13H19V14H18zM22,13H23V14H22zM23,13H24V14H23zM26,13H27V14H26zM27,13H28V14H27zM30,13H31V14H30zM32,13H33V14H32zM2,14H3V15H2zM5,14H6V15H5zM7,14H8V15H7zM8,14H9V15H8zM11,14H12V15H11zM14,14H15V15H14zM15,14H16V15H15zM17,14H18V15H17zM18,14H19V15H18zM21,14H22V15H21zM23,14H24V15H23zM24,14H25V15H24zM29,14H30V15H29zM30,14H31V15H30zM31,14H32V15H31zM2,15H3V16H2zM3,15H4V16H3zM4,15H5V16H4zM6,15H7V16H6zM7,15H8V16H7zM10,15H11V16H10zM11,15H12V16H11zM12,15H13V16H12zM16,15H17V16H16zM18,15H19V16H18zM21,15H22V16H21zM22,15H23V16H22zM23,15H24V16H23zM25,15H26V16H25zM26,15H27V16H26zM28,15H29V16H28zM29,15H30V16H29zM33,15H34V16H33zM34,15H35V16H34zM3,16H4V17H3zM4,16H5V17H4zM5,16H6V17H5zM8,16H9V17H8zM10,16H11V17H10zM12,16H13V17H12zM14,16H15V17H14zM17,16H18V17H17zM23,16H24V17H23zM24,16H25V17H24zM26,16H27V17H26zM27,16H28V17H27zM28,16H29V17H28zM33,16H34V17H33zM3,17H4V18H3zM5,17H6V18H5zM6,17H7V18H6zM9,17H10V18H9zM10,17H11V18H10zM11,17H12V18H11zM17,17H18V18H17zM18,17H19V18H18zM20,17H21V18H20zM22,17H23V18H22zM23,17H24V18H23zM27,17H28V18H27zM28,17H29V18H28zM32,17H33V18H32zM2,18H3V19H2zM3,18H4V19H3zM5,18H6V19H5zM6,18H7V19H6zM8,18H9V19H8zM9,18H10V19H9zM10,18H11V19H10zM12,18H13V19H12zM14,18H15V19H14zM15,18H16V19H15zM17,18H18V19H17zM21,18H22V19H21zM23,18H24V19H23zM24,18H25V19H24zM26,18H27V19H26zM27,18H28V19H27zM30,18H31V19H30zM33,18H34V19H33zM3,19H4V20H3zM6,19H7V20H6zM7,19H8V20H7zM9,19H10V20H9zM11,19H12V20H11zM12,19H13V20H12zM13,19H14V20H13zM16,19H17V20H16zM18,19H19V20H18zM20,19H21V20H20zM21,19H22V20H21zM22,19H23V20H22zM24,19H25V20H24zM28,19H29V20H28zM31,19H32V20H31zM33,19H34V20H33zM34,19H35V20H34zM2,20H3V21H2zM8,20H9V21H8zM11,20H12V21H11zM16,20H17V21H16zM17,20H18V21H17zM19,20H20V21H19zM20,20H21V21H20zM24,20H25V21H24zM26,20H27V21H26zM27,20H28V21H27zM29,20H30V21H29zM30,20H31V21H30zM31,20H32V21H31zM33,20H34V21H33zM2,21H3V22H2zM5,21H6V22H5zM10,21H11V22H10zM11,21H12V22H11zM13,21H14V22H13zM14,21H15V22H14zM17,21H18V22H17zM20,21H21V22H20zM23,21H24V22H23zM24,21H25V22H24zM28,21H29V22H28zM29,21H30V22H29zM32,21H33V22H32zM2,22H3V23H2zM6,22H7V23H6zM8,22H9V23H8zM9,22H10V23H9zM11,22H12V23H11zM15,22H16V23H15zM16,22H17V23H16zM19,22H20V23H19zM22,22H23V23H22zM23,22H24V23H23zM24,22H25V23H24zM26,22H27V23H26zM30,22H31V23H30zM33,22H34V23H33zM2,23H3V24H2zM3,23H4V24H3zM5,23H6V24H5zM7,23H8V24H7zM9,23H10V24H9zM10,23H11V24H10zM13,23H14V24H13zM15,23H16V24H15zM17,23H18V24H17zM18,23H19V24H18zM21,23H22V24H21zM22,23H23V24H22zM25,23H26V24H25zM27,23H28V24H27zM28,23H29V24H28zM31,23H32V24H31zM33,23H34V24H33zM34,23H35V24H34zM2,24H3V25H2zM6,24H7V25H6zM7,24H8V25H7zM8,24H9V25H8zM11,24H12V25H11zM12,24H13V25H12zM17,24H18V25H17zM19,24H20V25H19zM20,24H21V25H20zM24,24H25V25H24zM28,24H29V25H28zM29,24H30V25H29zM30,24H31V25H30zM31,24H32V25H31zM33,24H34V25H33zM2,25H3V26H2zM5,25H6V26H5zM6,25H7V26H6zM7,25H8V26H7zM9,25H10V26H9zM10,25H11V26H10zM13,25H14V26H13zM16,25H17V26H16zM17,25H18V26H17zM18,25H19V26H18zM21,25H22V26H21zM23,25H24V26H23zM24,25H25V26H24zM25,25H26V26H25zM27,25H28V26H27zM30,25H31V26H30zM31,25H32V26H31zM32,25H33V26H32zM2,26H3V27H2zM8,26H9V27H8zM12,26H13V27H12zM14,26H15V27H14zM15,26H16V27H15zM16,26H17V27H16zM19,26H20V27H19zM22,26H23V27H22zM24,26H25V27H24zM25,26H26V27H25zM26,26H27V27H26zM27,26H28V27H27zM28,26H29V27H28zM29,26H30V27H29zM30,26H31V27H30zM34,26H35V27H34zM10,27H11V28H10zM11,27H12V28H11zM16,27H17V28H16zM17,27H18V28H17zM18,27H19V28H18zM19,27H20V28H19zM20,27H21V28H20zM21,27H22V28H21zM23,27H24V28H23zM26,27H27V28H26zM30,27H31V28H30zM31,27H32V28H31zM34,27H35V28H34zM2,28H3V29H2zM3,28H4V29H3zM4,28H5V29H4zM5,28H6V29H5zM6,28H7V29H6zM7,28H8V29H7zM8,28H9V29H8zM10,28H11V29H10zM11,28H12V29H11zM16,28H17V29H16zM17,28H18V29H17zM19,28H20V29H19zM22,28H23V29H22zM23,28H24V29H23zM24,28H25V29H24zM25,28H26V29H25zM26,28H27V29H26zM28,28H29V29H28zM30,28H31V29H30zM31,28H32V29H31zM32,28H33V29H32zM33,28H34V29H33zM2,29H3V30H2zM8,29H9V30H8zM11,29H12V30H11zM12,29H13V30H12zM16,29H17V30H16zM20,29H21V30H20zM21,29H22V30H21zM22,29H23V30H22zM23,29H24V30H23zM25,29H26V30H25zM26,29H27V30H26zM30,29H31V30H30zM31,29H32V30H31zM32,29H33V30H32zM2,30H3V31H2zM4,30H5V31H4zM5,30H6V31H5zM6,30H7V31H6zM8,30H9V31H8zM10,30H11V31H10zM11,30H12V31H11zM12,30H13V31H12zM14,30H15V31H14zM15,30H16V31H15zM22,30H23V31H22zM23,30H24V31H23zM24,30H25V31H24zM26,30H27V31H26zM27,30H28V31H27zM28,30H29V31H28zM29,30H30V31H29zM30,30H31V31H30zM33,30H34V31H33zM34,30H35V31H34zM2,31H3V32H2zM4,31H5V32H4zM5,31H6V32H5zM6,31H7V32H6zM8,31H9V32H8zM10,31H11V32H10zM11,31H12V32H11zM12,31H13V32H12zM13,31H14V32H13zM16,31H17V32H16zM18,31H19V32H18zM19,31H20V32H19zM20,31H21V32H20zM22,31H23V32H22zM23,31H24V32H23zM26,31H27V32H26zM27,31H28V32H27zM29,31H30V32H29zM30,31H31V32H30zM32,31H33V32H32zM2,32H3V33H2zM4,32H5V33H4zM5,32H6V33H5zM6,32H7V33H6zM8,32H9V33H8zM10,32H11V33H10zM11,32H12V33H11zM15,32H16V33H15zM17,32H18V33H17zM18,32H19V33H18zM19,32H20V33H19zM22,32H23V33H22zM29,32H30V33H29zM31,32H32V33H31zM32,32H33V33H32zM33,32H34V33H33zM2,33H3V34H2zM8,33H9V34H8zM10,33H11V34H10zM12,33H13V34H12zM13,33H14V34H13zM16,33H17V34H16zM22,33H23V34H22zM23,33H24V34H23zM24,33H25V34H24zM26,33H27V34H26zM27,33H28V34H27zM28,33H29V34H28zM29,33H30V34H29zM31,33H32V34H31zM32,33H33V34H32zM2,34H3V35H2zM3,34H4V35H3zM4,34H5V35H4zM5,34H6V35H5zM6,34H7V35H6zM7,34H8V35H7zM8,34H9V35H8zM10,34H11V35H10zM12,34H13V35H12zM15,34H16V35H15zM19,34H20V35H19zM21,34H22V35H21zM25,34H26V35H25zM26,34H27V35H26zM29,34H30V35H29zM30,34H31V35H30zM31,34H32V35H31zM33,34H34V35H33z" id="qr-path" fill="#000000" fill-opacity="1" fill-rule="nonzero" stroke="none"/></svg>