<svg width="500" height="500" viewBox="0 0 500 500" fill="none" xmlns="http://www.w3.org/2000/svg">
<g clip-path="url(#clip0_67_583)">
<path d="M500 0H0V500H500V0Z" fill="#F8F5F2"/>
<path d="M15.1515 0H0V15.1515H15.1515V0Z" fill="black"/>
<path d="M30.3031 0H15.1516V15.1515H30.3031V0Z" fill="black"/>
<path d="M45.4545 0H30.303V15.1515H45.4545V0Z" fill="black"/>
<path d="M60.6061 0H45.4546V15.1515H60.6061V0Z" fill="black"/>
<path d="M75.7575 0H60.606V15.1515H75.7575V0Z" fill="black"/>
<path d="M90.9091 0H75.7576V15.1515H90.9091V0Z" fill="black"/>
<path d="M106.061 0H90.9092V15.1515H106.061V0Z" fill="black"/>
<path d="M136.364 0H121.212V15.1515H136.364V0Z" fill="black"/>
<path d="M151.515 0H136.364V15.1515H151.515V0Z" fill="black"/>
<path d="M181.818 0H166.667V15.1515H181.818V0Z" fill="black"/>
<path d="M196.97 0H181.818V15.1515H196.97V0Z" fill="black"/>
<path d="M212.121 0H196.97V15.1515H212.121V0Z" fill="black"/>
<path d="M242.424 0H227.273V15.1515H242.424V0Z" fill="black"/>
<path d="M272.727 0H257.576V15.1515H272.727V0Z" fill="black"/>
<path d="M287.879 0H272.727V15.1515H287.879V0Z" fill="black"/>
<path d="M303.03 0H287.879V15.1515H303.03V0Z" fill="black"/>
<path d="M333.333 0H318.182V15.1515H333.333V0Z" fill="black"/>
<path d="M348.485 0H333.333V15.1515H348.485V0Z" fill="black"/>
<path d="M363.636 0H348.485V15.1515H363.636V0Z" fill="black"/>
<path d="M378.788 0H363.636V15.1515H378.788V0Z" fill="black"/>
<path d="M409.091 0H393.939V15.1515H409.091V0Z" fill="black"/>
<path d="M424.242 0H409.091V15.1515H424.242V0Z" fill="black"/>
<path d="M439.394 0H424.242V15.1515H439.394V0Z" fill="black"/>
<path d="M454.546 0H439.394V15.1515H454.546V0Z" fill="black"/>
<path d="M469.697 0H454.545V15.1515H469.697V0Z" fill="black"/>
<path d="M484.848 0H469.697V15.1515H484.848V0Z" fill="black"/>
<path d="M500 0H484.849V15.1515H500V0Z" fill="black"/>
<path d="M15.1515 15.1516H0V30.3031H15.1515V15.1516Z" fill="black"/>
<path d="M106.061 15.1516H90.9092V30.3031H106.061V15.1516Z" fill="black"/>
<path d="M136.364 15.1516H121.212V30.3031H136.364V15.1516Z" fill="black"/>
<path d="M151.515 15.1516H136.364V30.3031H151.515V15.1516Z" fill="black"/>
<path d="M181.818 15.1516H166.667V30.3031H181.818V15.1516Z" fill="black"/>
<path d="M196.97 15.1516H181.818V30.3031H196.97V15.1516Z" fill="black"/>
<path d="M257.576 15.1516H242.424V30.3031H257.576V15.1516Z" fill="black"/>
<path d="M272.727 15.1516H257.576V30.3031H272.727V15.1516Z" fill="black"/>
<path d="M318.182 15.1516H303.03V30.3031H318.182V15.1516Z" fill="black"/>
<path d="M348.485 15.1516H333.333V30.3031H348.485V15.1516Z" fill="black"/>
<path d="M409.091 15.1516H393.939V30.3031H409.091V15.1516Z" fill="black"/>
<path d="M500 15.1516H484.849V30.3031H500V15.1516Z" fill="black"/>
<path d="M15.1515 30.303H0V45.4545H15.1515V30.303Z" fill="black"/>
<path d="M45.4545 30.303H30.303V45.4545H45.4545V30.303Z" fill="black"/>
<path d="M60.6061 30.303H45.4546V45.4545H60.6061V30.303Z" fill="black"/>
<path d="M75.7575 30.303H60.606V45.4545H75.7575V30.303Z" fill="black"/>
<path d="M106.061 30.303H90.9092V45.4545H106.061V30.303Z" fill="black"/>
<path d="M136.364 30.303H121.212V45.4545H136.364V30.303Z" fill="black"/>
<path d="M151.515 30.303H136.364V45.4545H151.515V30.303Z" fill="black"/>
<path d="M212.121 30.303H196.97V45.4545H212.121V30.303Z" fill="black"/>
<path d="M242.424 30.303H227.273V45.4545H242.424V30.303Z" fill="black"/>
<path d="M287.879 30.303H272.727V45.4545H287.879V30.303Z" fill="black"/>
<path d="M303.03 30.303H287.879V45.4545H303.03V30.303Z" fill="black"/>
<path d="M318.182 30.303H303.03V45.4545H318.182V30.303Z" fill="black"/>
<path d="M333.333 30.303H318.182V45.4545H333.333V30.303Z" fill="black"/>
<path d="M348.485 30.303H333.333V45.4545H348.485V30.303Z" fill="black"/>
<path d="M363.636 30.303H348.485V45.4545H363.636V30.303Z" fill="black"/>
<path d="M409.091 30.303H393.939V45.4545H409.091V30.303Z" fill="black"/>
<path d="M439.394 30.303H424.242V45.4545H439.394V30.303Z" fill="black"/>
<path d="M454.546 30.303H439.394V45.4545H454.546V30.303Z" fill="black"/>
<path d="M469.697 30.303H454.545V45.4545H469.697V30.303Z" fill="black"/>
<path d="M500 30.303H484.849V45.4545H500V30.303Z" fill="black"/>
<path d="M15.1515 45.4546H0V60.6061H15.1515V45.4546Z" fill="black"/>
<path d="M45.4545 45.4546H30.303V60.6061H45.4545V45.4546Z" fill="black"/>
<path d="M60.6061 45.4546H45.4546V60.6061H60.6061V45.4546Z" fill="black"/>
<path d="M75.7575 45.4546H60.606V60.6061H75.7575V45.4546Z" fill="black"/>
<path d="M106.061 45.4546H90.9092V60.6061H106.061V45.4546Z" fill="black"/>
<path d="M151.515 45.4546H136.364V60.6061H151.515V45.4546Z" fill="black"/>
<path d="M166.667 45.4546H151.515V60.6061H166.667V45.4546Z" fill="black"/>
<path d="M181.818 45.4546H166.667V60.6061H181.818V45.4546Z" fill="black"/>
<path d="M196.97 45.4546H181.818V60.6061H196.97V45.4546Z" fill="black"/>
<path d="M212.121 45.4546H196.97V60.6061H212.121V45.4546Z" fill="black"/>
<path d="M227.273 45.4546H212.121V60.6061H227.273V45.4546Z" fill="black"/>
<path d="M287.879 45.4546H272.727V60.6061H287.879V45.4546Z" fill="black"/>
<path d="M409.091 45.4546H393.939V60.6061H409.091V45.4546Z" fill="black"/>
<path d="M439.394 45.4546H424.242V60.6061H439.394V45.4546Z" fill="black"/>
<path d="M454.546 45.4546H439.394V60.6061H454.546V45.4546Z" fill="black"/>
<path d="M469.697 45.4546H454.545V60.6061H469.697V45.4546Z" fill="black"/>
<path d="M500 45.4546H484.849V60.6061H500V45.4546Z" fill="black"/>
<path d="M15.1515 60.606H0V75.7575H15.1515V60.606Z" fill="black"/>
<path d="M45.4545 60.606H30.303V75.7575H45.4545V60.606Z" fill="black"/>
<path d="M60.6061 60.606H45.4546V75.7575H60.6061V60.606Z" fill="black"/>
<path d="M75.7575 60.606H60.606V75.7575H75.7575V60.606Z" fill="black"/>
<path d="M106.061 60.606H90.9092V75.7575H106.061V60.606Z" fill="black"/>
<path d="M151.515 60.606H136.364V75.7575H151.515V60.606Z" fill="black"/>
<path d="M181.818 60.606H166.667V75.7575H181.818V60.606Z" fill="black"/>
<path d="M196.97 60.606H181.818V75.7575H196.97V60.606Z" fill="black"/>
<path d="M257.576 60.606H242.424V75.7575H257.576V60.606Z" fill="black"/>
<path d="M272.727 60.606H257.576V75.7575H272.727V60.606Z" fill="black"/>
<path d="M287.879 60.606H272.727V75.7575H287.879V60.606Z" fill="black"/>
<path d="M303.03 60.606H287.879V75.7575H303.03V60.606Z" fill="black"/>
<path d="M333.333 60.606H318.182V75.7575H333.333V60.606Z" fill="black"/>
<path d="M378.788 60.606H363.636V75.7575H378.788V60.606Z" fill="black"/>
<path d="M409.091 60.606H393.939V75.7575H409.091V60.606Z" fill="black"/>
<path d="M439.394 60.606H424.242V75.7575H439.394V60.606Z" fill="black"/>
<path d="M454.546 60.606H439.394V75.7575H454.546V60.606Z" fill="black"/>
<path d="M469.697 60.606H454.545V75.7575H469.697V60.606Z" fill="black"/>
<path d="M500 60.606H484.849V75.7575H500V60.606Z" fill="black"/>
<path d="M15.1515 75.7576H0V90.9091H15.1515V75.7576Z" fill="black"/>
<path d="M106.061 75.7576H90.9092V90.9091H106.061V75.7576Z" fill="black"/>
<path d="M136.364 75.7576H121.212V90.9091H136.364V75.7576Z" fill="black"/>
<path d="M166.667 75.7576H151.515V90.9091H166.667V75.7576Z" fill="black"/>
<path d="M196.97 75.7576H181.818V90.9091H196.97V75.7576Z" fill="black"/>
<path d="M212.121 75.7576H196.97V90.9091H212.121V75.7576Z" fill="black"/>
<path d="M227.273 75.7576H212.121V90.9091H227.273V75.7576Z" fill="black"/>
<path d="M257.576 75.7576H242.424V90.9091H257.576V75.7576Z" fill="black"/>
<path d="M287.879 75.7576H272.727V90.9091H287.879V75.7576Z" fill="black"/>
<path d="M303.03 75.7576H287.879V90.9091H303.03V75.7576Z" fill="black"/>
<path d="M348.485 75.7576H333.333V90.9091H348.485V75.7576Z" fill="black"/>
<path d="M409.091 75.7576H393.939V90.9091H409.091V75.7576Z" fill="black"/>
<path d="M500 75.7576H484.849V90.9091H500V75.7576Z" fill="black"/>
<path d="M15.1515 90.9092H0V106.061H15.1515V90.9092Z" fill="black"/>
<path d="M30.3031 90.9092H15.1516V106.061H30.3031V90.9092Z" fill="black"/>
<path d="M45.4545 90.9092H30.303V106.061H45.4545V90.9092Z" fill="black"/>
<path d="M60.6061 90.9092H45.4546V106.061H60.6061V90.9092Z" fill="black"/>
<path d="M75.7575 90.9092H60.606V106.061H75.7575V90.9092Z" fill="black"/>
<path d="M90.9091 90.9092H75.7576V106.061H90.9091V90.9092Z" fill="black"/>
<path d="M106.061 90.9092H90.9092V106.061H106.061V90.9092Z" fill="black"/>
<path d="M136.364 90.9092H121.212V106.061H136.364V90.9092Z" fill="black"/>
<path d="M166.667 90.9092H151.515V106.061H166.667V90.9092Z" fill="black"/>
<path d="M196.97 90.9092H181.818V106.061H196.97V90.9092Z" fill="black"/>
<path d="M227.273 90.9092H212.121V106.061H227.273V90.9092Z" fill="black"/>
<path d="M257.576 90.9092H242.424V106.061H257.576V90.9092Z" fill="black"/>
<path d="M287.879 90.9092H272.727V106.061H287.879V90.9092Z" fill="black"/>
<path d="M318.182 90.9092H303.03V106.061H318.182V90.9092Z" fill="black"/>
<path d="M348.485 90.9092H333.333V106.061H348.485V90.9092Z" fill="black"/>
<path d="M378.788 90.9092H363.636V106.061H378.788V90.9092Z" fill="black"/>
<path d="M409.091 90.9092H393.939V106.061H409.091V90.9092Z" fill="black"/>
<path d="M424.242 90.9092H409.091V106.061H424.242V90.9092Z" fill="black"/>
<path d="M439.394 90.9092H424.242V106.061H439.394V90.9092Z" fill="black"/>
<path d="M454.546 90.9092H439.394V106.061H454.546V90.9092Z" fill="black"/>
<path d="M469.697 90.9092H454.545V106.061H469.697V90.9092Z" fill="black"/>
<path d="M484.848 90.9092H469.697V106.061H484.848V90.9092Z" fill="black"/>
<path d="M500 90.9092H484.849V106.061H500V90.9092Z" fill="black"/>
<path d="M136.364 106.061H121.212V121.212H136.364V106.061Z" fill="black"/>
<path d="M151.515 106.061H136.364V121.212H151.515V106.061Z" fill="black"/>
<path d="M166.667 106.061H151.515V121.212H166.667V106.061Z" fill="black"/>
<path d="M181.818 106.061H166.667V121.212H181.818V106.061Z" fill="black"/>
<path d="M227.273 106.061H212.121V121.212H227.273V106.061Z" fill="black"/>
<path d="M242.424 106.061H227.273V121.212H242.424V106.061Z" fill="black"/>
<path d="M272.727 106.061H257.576V121.212H272.727V106.061Z" fill="black"/>
<path d="M333.333 106.061H318.182V121.212H333.333V106.061Z" fill="black"/>
<path d="M348.485 106.061H333.333V121.212H348.485V106.061Z" fill="black"/>
<path d="M378.788 106.061H363.636V121.212H378.788V106.061Z" fill="black"/>
<path d="M45.4545 121.212H30.303V136.364H45.4545V121.212Z" fill="black"/>
<path d="M60.6061 121.212H45.4546V136.364H60.6061V121.212Z" fill="black"/>
<path d="M75.7575 121.212H60.606V136.364H75.7575V121.212Z" fill="black"/>
<path d="M106.061 121.212H90.9092V136.364H106.061V121.212Z" fill="black"/>
<path d="M136.364 121.212H121.212V136.364H136.364V121.212Z" fill="black"/>
<path d="M151.515 121.212H136.364V136.364H151.515V121.212Z" fill="black"/>
<path d="M257.576 121.212H242.424V136.364H257.576V121.212Z" fill="black"/>
<path d="M287.879 121.212H272.727V136.364H287.879V121.212Z" fill="black"/>
<path d="M393.94 121.212H378.788V136.364H393.94V121.212Z" fill="black"/>
<path d="M409.091 121.212H393.939V136.364H409.091V121.212Z" fill="black"/>
<path d="M424.242 121.212H409.091V136.364H424.242V121.212Z" fill="black"/>
<path d="M469.697 121.212H454.545V136.364H469.697V121.212Z" fill="black"/>
<path d="M484.848 121.212H469.697V136.364H484.848V121.212Z" fill="black"/>
<path d="M500 121.212H484.849V136.364H500V121.212Z" fill="black"/>
<path d="M15.1515 136.364H0V151.515H15.1515V136.364Z" fill="black"/>
<path d="M45.4545 136.364H30.303V151.515H45.4545V136.364Z" fill="black"/>
<path d="M75.7575 136.364H60.606V151.515H75.7575V136.364Z" fill="black"/>
<path d="M121.212 136.364H106.061V151.515H121.212V136.364Z" fill="black"/>
<path d="M136.364 136.364H121.212V151.515H136.364V136.364Z" fill="black"/>
<path d="M196.97 136.364H181.818V151.515H196.97V136.364Z" fill="black"/>
<path d="M212.121 136.364H196.97V151.515H212.121V136.364Z" fill="black"/>
<path d="M227.273 136.364H212.121V151.515H227.273V136.364Z" fill="black"/>
<path d="M272.727 136.364H257.576V151.515H272.727V136.364Z" fill="black"/>
<path d="M318.182 136.364H303.03V151.515H318.182V136.364Z" fill="black"/>
<path d="M363.636 136.364H348.485V151.515H363.636V136.364Z" fill="black"/>
<path d="M378.788 136.364H363.636V151.515H378.788V136.364Z" fill="black"/>
<path d="M454.546 136.364H439.394V151.515H454.546V136.364Z" fill="black"/>
<path d="M469.697 136.364H454.545V151.515H469.697V136.364Z" fill="black"/>
<path d="M484.848 136.364H469.697V151.515H484.848V136.364Z" fill="black"/>
<path d="M500 136.364H484.849V151.515H500V136.364Z" fill="black"/>
<path d="M90.9091 151.515H75.7576V166.667H90.9091V151.515Z" fill="black"/>
<path d="M106.061 151.515H90.9092V166.667H106.061V151.515Z" fill="black"/>
<path d="M121.212 151.515H106.061V166.667H121.212V151.515Z" fill="black"/>
<path d="M136.364 151.515H121.212V166.667H136.364V151.515Z" fill="black"/>
<path d="M151.515 151.515H136.364V166.667H151.515V151.515Z" fill="black"/>
<path d="M166.667 151.515H151.515V166.667H166.667V151.515Z" fill="black"/>
<path d="M181.818 151.515H166.667V166.667H181.818V151.515Z" fill="black"/>
<path d="M227.273 151.515H212.121V166.667H227.273V151.515Z" fill="black"/>
<path d="M242.424 151.515H227.273V166.667H242.424V151.515Z" fill="black"/>
<path d="M318.182 151.515H303.03V166.667H318.182V151.515Z" fill="black"/>
<path d="M348.485 151.515H333.333V166.667H348.485V151.515Z" fill="black"/>
<path d="M363.636 151.515H348.485V166.667H363.636V151.515Z" fill="black"/>
<path d="M378.788 151.515H363.636V166.667H378.788V151.515Z" fill="black"/>
<path d="M393.94 151.515H378.788V166.667H393.94V151.515Z" fill="black"/>
<path d="M439.394 151.515H424.242V166.667H439.394V151.515Z" fill="black"/>
<path d="M454.546 151.515H439.394V166.667H454.546V151.515Z" fill="black"/>
<path d="M484.848 151.515H469.697V166.667H484.848V151.515Z" fill="black"/>
<path d="M500 151.515H484.849V166.667H500V151.515Z" fill="black"/>
<path d="M15.1515 166.667H0V181.818H15.1515V166.667Z" fill="black"/>
<path d="M60.6061 166.667H45.4546V181.818H60.6061V166.667Z" fill="black"/>
<path d="M75.7575 166.667H60.606V181.818H75.7575V166.667Z" fill="black"/>
<path d="M90.9091 166.667H75.7576V181.818H90.9091V166.667Z" fill="black"/>
<path d="M136.364 166.667H121.212V181.818H136.364V166.667Z" fill="black"/>
<path d="M151.515 166.667H136.364V181.818H151.515V166.667Z" fill="black"/>
<path d="M166.667 166.667H151.515V181.818H166.667V166.667Z" fill="black"/>
<path d="M196.97 166.667H181.818V181.818H196.97V166.667Z" fill="black"/>
<path d="M227.273 166.667H212.121V181.818H227.273V166.667Z" fill="black"/>
<path d="M242.424 166.667H227.273V181.818H242.424V166.667Z" fill="black"/>
<path d="M257.576 166.667H242.424V181.818H257.576V166.667Z" fill="black"/>
<path d="M272.727 166.667H257.576V181.818H272.727V166.667Z" fill="black"/>
<path d="M287.879 166.667H272.727V181.818H287.879V166.667Z" fill="black"/>
<path d="M363.636 166.667H348.485V181.818H363.636V166.667Z" fill="black"/>
<path d="M409.091 166.667H393.939V181.818H409.091V166.667Z" fill="black"/>
<path d="M469.697 166.667H454.545V181.818H469.697V166.667Z" fill="black"/>
<path d="M500 166.667H484.849V181.818H500V166.667Z" fill="black"/>
<path d="M75.7575 181.818H60.606V196.97H75.7575V181.818Z" fill="black"/>
<path d="M106.061 181.818H90.9092V196.97H106.061V181.818Z" fill="black"/>
<path d="M121.212 181.818H106.061V196.97H121.212V181.818Z" fill="black"/>
<path d="M136.364 181.818H121.212V196.97H136.364V181.818Z" fill="black"/>
<path d="M166.667 181.818H151.515V196.97H166.667V181.818Z" fill="black"/>
<path d="M181.818 181.818H166.667V196.97H181.818V181.818Z" fill="black"/>
<path d="M196.97 181.818H181.818V196.97H196.97V181.818Z" fill="black"/>
<path d="M212.121 181.818H196.97V196.97H212.121V181.818Z" fill="black"/>
<path d="M227.273 181.818H212.121V196.97H227.273V181.818Z" fill="black"/>
<path d="M272.727 181.818H257.576V196.97H272.727V181.818Z" fill="black"/>
<path d="M287.879 181.818H272.727V196.97H287.879V181.818Z" fill="black"/>
<path d="M318.182 181.818H303.03V196.97H318.182V181.818Z" fill="black"/>
<path d="M333.333 181.818H318.182V196.97H333.333V181.818Z" fill="black"/>
<path d="M348.485 181.818H333.333V196.97H348.485V181.818Z" fill="black"/>
<path d="M393.94 181.818H378.788V196.97H393.94V181.818Z" fill="black"/>
<path d="M409.091 181.818H393.939V196.97H409.091V181.818Z" fill="black"/>
<path d="M424.242 181.818H409.091V196.97H424.242V181.818Z" fill="black"/>
<path d="M60.6061 196.97H45.4546V212.121H60.6061V196.97Z" fill="black"/>
<path d="M121.212 196.97H106.061V212.121H121.212V196.97Z" fill="black"/>
<path d="M136.364 196.97H121.212V212.121H136.364V196.97Z" fill="black"/>
<path d="M151.515 196.97H136.364V212.121H151.515V196.97Z" fill="black"/>
<path d="M166.667 196.97H151.515V212.121H166.667V196.97Z" fill="black"/>
<path d="M196.97 196.97H181.818V212.121H196.97V196.97Z" fill="black"/>
<path d="M227.273 196.97H212.121V212.121H227.273V196.97Z" fill="black"/>
<path d="M257.576 196.97H242.424V212.121H257.576V196.97Z" fill="black"/>
<path d="M287.879 196.97H272.727V212.121H287.879V196.97Z" fill="black"/>
<path d="M333.333 196.97H318.182V212.121H333.333V196.97Z" fill="black"/>
<path d="M363.636 196.97H348.485V212.121H363.636V196.97Z" fill="black"/>
<path d="M393.94 196.97H378.788V212.121H393.94V196.97Z" fill="black"/>
<path d="M439.394 196.97H424.242V212.121H439.394V196.97Z" fill="black"/>
<path d="M454.546 196.97H439.394V212.121H454.546V196.97Z" fill="black"/>
<path d="M15.1515 212.121H0V227.273H15.1515V212.121Z" fill="black"/>
<path d="M30.3031 212.121H15.1516V227.273H30.3031V212.121Z" fill="black"/>
<path d="M75.7575 212.121H60.606V227.273H75.7575V212.121Z" fill="black"/>
<path d="M90.9091 212.121H75.7576V227.273H90.9091V212.121Z" fill="black"/>
<path d="M106.061 212.121H90.9092V227.273H106.061V212.121Z" fill="black"/>
<path d="M136.364 212.121H121.212V227.273H136.364V212.121Z" fill="black"/>
<path d="M166.667 212.121H151.515V227.273H166.667V212.121Z" fill="black"/>
<path d="M227.273 212.121H212.121V227.273H227.273V212.121Z" fill="black"/>
<path d="M242.424 212.121H227.273V227.273H242.424V212.121Z" fill="black"/>
<path d="M287.879 212.121H272.727V227.273H287.879V212.121Z" fill="black"/>
<path d="M363.636 212.121H348.485V227.273H363.636V212.121Z" fill="black"/>
<path d="M378.788 212.121H363.636V227.273H378.788V212.121Z" fill="black"/>
<path d="M393.94 212.121H378.788V227.273H393.94V212.121Z" fill="black"/>
<path d="M424.242 212.121H409.091V227.273H424.242V212.121Z" fill="black"/>
<path d="M439.394 212.121H424.242V227.273H439.394V212.121Z" fill="black"/>
<path d="M484.848 212.121H469.697V227.273H484.848V212.121Z" fill="black"/>
<path d="M15.1515 227.273H0V242.424H15.1515V227.273Z" fill="black"/>
<path d="M30.3031 227.273H15.1516V242.424H30.3031V227.273Z" fill="black"/>
<path d="M45.4545 227.273H30.303V242.424H45.4545V227.273Z" fill="black"/>
<path d="M121.212 227.273H106.061V242.424H121.212V227.273Z" fill="black"/>
<path d="M136.364 227.273H121.212V242.424H136.364V227.273Z" fill="black"/>
<path d="M196.97 227.273H181.818V242.424H196.97V227.273Z" fill="black"/>
<path d="M212.121 227.273H196.97V242.424H212.121V227.273Z" fill="black"/>
<path d="M242.424 227.273H227.273V242.424H242.424V227.273Z" fill="black"/>
<path d="M287.879 227.273H272.727V242.424H287.879V227.273Z" fill="black"/>
<path d="M303.03 227.273H287.879V242.424H303.03V227.273Z" fill="black"/>
<path d="M348.485 227.273H333.333V242.424H348.485V227.273Z" fill="black"/>
<path d="M363.636 227.273H348.485V242.424H363.636V227.273Z" fill="black"/>
<path d="M378.788 227.273H363.636V242.424H378.788V227.273Z" fill="black"/>
<path d="M409.091 227.273H393.939V242.424H409.091V227.273Z" fill="black"/>
<path d="M439.394 227.273H424.242V242.424H439.394V227.273Z" fill="black"/>
<path d="M454.546 227.273H439.394V242.424H454.546V227.273Z" fill="black"/>
<path d="M500 227.273H484.849V242.424H500V227.273Z" fill="black"/>
<path d="M15.1515 242.424H0V257.576H15.1515V242.424Z" fill="black"/>
<path d="M45.4545 242.424H30.303V257.576H45.4545V242.424Z" fill="black"/>
<path d="M60.6061 242.424H45.4546V257.576H60.6061V242.424Z" fill="black"/>
<path d="M90.9091 242.424H75.7576V257.576H90.9091V242.424Z" fill="black"/>
<path d="M106.061 242.424H90.9092V257.576H106.061V242.424Z" fill="black"/>
<path d="M121.212 242.424H106.061V257.576H121.212V242.424Z" fill="black"/>
<path d="M166.667 242.424H151.515V257.576H166.667V242.424Z" fill="black"/>
<path d="M212.121 242.424H196.97V257.576H212.121V242.424Z" fill="black"/>
<path d="M227.273 242.424H212.121V257.576H227.273V242.424Z" fill="black"/>
<path d="M257.576 242.424H242.424V257.576H257.576V242.424Z" fill="black"/>
<path d="M272.727 242.424H257.576V257.576H272.727V242.424Z" fill="black"/>
<path d="M287.879 242.424H272.727V257.576H287.879V242.424Z" fill="black"/>
<path d="M303.03 242.424H287.879V257.576H303.03V242.424Z" fill="black"/>
<path d="M318.182 242.424H303.03V257.576H318.182V242.424Z" fill="black"/>
<path d="M378.788 242.424H363.636V257.576H378.788V242.424Z" fill="black"/>
<path d="M393.94 242.424H378.788V257.576H393.94V242.424Z" fill="black"/>
<path d="M409.091 242.424H393.939V257.576H409.091V242.424Z" fill="black"/>
<path d="M424.242 242.424H409.091V257.576H424.242V242.424Z" fill="black"/>
<path d="M439.394 242.424H424.242V257.576H439.394V242.424Z" fill="black"/>
<path d="M469.697 242.424H454.545V257.576H469.697V242.424Z" fill="black"/>
<path d="M500 242.424H484.849V257.576H500V242.424Z" fill="black"/>
<path d="M15.1515 257.576H0V272.727H15.1515V257.576Z" fill="black"/>
<path d="M30.3031 257.576H15.1516V272.727H30.3031V257.576Z" fill="black"/>
<path d="M60.6061 257.576H45.4546V272.727H60.6061V257.576Z" fill="black"/>
<path d="M75.7575 257.576H60.606V272.727H75.7575V257.576Z" fill="black"/>
<path d="M90.9091 257.576H75.7576V272.727H90.9091V257.576Z" fill="black"/>
<path d="M136.364 257.576H121.212V272.727H136.364V257.576Z" fill="black"/>
<path d="M151.515 257.576H136.364V272.727H151.515V257.576Z" fill="black"/>
<path d="M166.667 257.576H151.515V272.727H166.667V257.576Z" fill="black"/>
<path d="M196.97 257.576H181.818V272.727H196.97V257.576Z" fill="black"/>
<path d="M227.273 257.576H212.121V272.727H227.273V257.576Z" fill="black"/>
<path d="M272.727 257.576H257.576V272.727H272.727V257.576Z" fill="black"/>
<path d="M333.333 257.576H318.182V272.727H333.333V257.576Z" fill="black"/>
<path d="M378.788 257.576H363.636V272.727H378.788V257.576Z" fill="black"/>
<path d="M409.091 257.576H393.939V272.727H409.091V257.576Z" fill="black"/>
<path d="M424.242 257.576H409.091V272.727H424.242V257.576Z" fill="black"/>
<path d="M439.394 257.576H424.242V272.727H439.394V257.576Z" fill="black"/>
<path d="M469.697 257.576H454.545V272.727H469.697V257.576Z" fill="black"/>
<path d="M15.1515 272.727H0V287.879H15.1515V272.727Z" fill="black"/>
<path d="M30.3031 272.727H15.1516V287.879H30.3031V272.727Z" fill="black"/>
<path d="M45.4545 272.727H30.303V287.879H45.4545V272.727Z" fill="black"/>
<path d="M60.6061 272.727H45.4546V287.879H60.6061V272.727Z" fill="black"/>
<path d="M90.9091 272.727H75.7576V287.879H90.9091V272.727Z" fill="black"/>
<path d="M106.061 272.727H90.9092V287.879H106.061V272.727Z" fill="black"/>
<path d="M151.515 272.727H136.364V287.879H151.515V272.727Z" fill="black"/>
<path d="M166.667 272.727H151.515V287.879H166.667V272.727Z" fill="black"/>
<path d="M181.818 272.727H166.667V287.879H181.818V272.727Z" fill="black"/>
<path d="M212.121 272.727H196.97V287.879H212.121V272.727Z" fill="black"/>
<path d="M257.576 272.727H242.424V287.879H257.576V272.727Z" fill="black"/>
<path d="M272.727 272.727H257.576V287.879H272.727V272.727Z" fill="black"/>
<path d="M287.879 272.727H272.727V287.879H287.879V272.727Z" fill="black"/>
<path d="M303.03 272.727H287.879V287.879H303.03V272.727Z" fill="black"/>
<path d="M348.485 272.727H333.333V287.879H348.485V272.727Z" fill="black"/>
<path d="M439.394 272.727H424.242V287.879H439.394V272.727Z" fill="black"/>
<path d="M454.546 272.727H439.394V287.879H454.546V272.727Z" fill="black"/>
<path d="M469.697 272.727H454.545V287.879H469.697V272.727Z" fill="black"/>
<path d="M15.1515 287.879H0V303.03H15.1515V287.879Z" fill="black"/>
<path d="M45.4545 287.879H30.303V303.03H45.4545V287.879Z" fill="black"/>
<path d="M60.6061 287.879H45.4546V303.03H60.6061V287.879Z" fill="black"/>
<path d="M75.7575 287.879H60.606V303.03H75.7575V287.879Z" fill="black"/>
<path d="M136.364 287.879H121.212V303.03H136.364V287.879Z" fill="black"/>
<path d="M166.667 287.879H151.515V303.03H166.667V287.879Z" fill="black"/>
<path d="M212.121 287.879H196.97V303.03H212.121V287.879Z" fill="black"/>
<path d="M227.273 287.879H212.121V303.03H227.273V287.879Z" fill="black"/>
<path d="M242.424 287.879H227.273V303.03H242.424V287.879Z" fill="black"/>
<path d="M257.576 287.879H242.424V303.03H257.576V287.879Z" fill="black"/>
<path d="M272.727 287.879H257.576V303.03H272.727V287.879Z" fill="black"/>
<path d="M287.879 287.879H272.727V303.03H287.879V287.879Z" fill="black"/>
<path d="M303.03 287.879H287.879V303.03H303.03V287.879Z" fill="black"/>
<path d="M318.182 287.879H303.03V303.03H318.182V287.879Z" fill="black"/>
<path d="M333.333 287.879H318.182V303.03H333.333V287.879Z" fill="black"/>
<path d="M363.636 287.879H348.485V303.03H363.636V287.879Z" fill="black"/>
<path d="M393.94 287.879H378.788V303.03H393.94V287.879Z" fill="black"/>
<path d="M30.3031 303.03H15.1516V318.182H30.3031V303.03Z" fill="black"/>
<path d="M106.061 303.03H90.9092V318.182H106.061V303.03Z" fill="black"/>
<path d="M121.212 303.03H106.061V318.182H121.212V303.03Z" fill="black"/>
<path d="M136.364 303.03H121.212V318.182H136.364V303.03Z" fill="black"/>
<path d="M181.818 303.03H166.667V318.182H181.818V303.03Z" fill="black"/>
<path d="M257.576 303.03H242.424V318.182H257.576V303.03Z" fill="black"/>
<path d="M272.727 303.03H257.576V318.182H272.727V303.03Z" fill="black"/>
<path d="M287.879 303.03H272.727V318.182H287.879V303.03Z" fill="black"/>
<path d="M318.182 303.03H303.03V318.182H318.182V303.03Z" fill="black"/>
<path d="M333.333 303.03H318.182V318.182H333.333V303.03Z" fill="black"/>
<path d="M348.485 303.03H333.333V318.182H348.485V303.03Z" fill="black"/>
<path d="M378.788 303.03H363.636V318.182H378.788V303.03Z" fill="black"/>
<path d="M424.242 303.03H409.091V318.182H424.242V303.03Z" fill="black"/>
<path d="M439.394 303.03H424.242V318.182H439.394V303.03Z" fill="black"/>
<path d="M469.697 303.03H454.545V318.182H469.697V303.03Z" fill="black"/>
<path d="M15.1515 318.182H0V333.333H15.1515V318.182Z" fill="black"/>
<path d="M30.3031 318.182H15.1516V333.333H30.3031V318.182Z" fill="black"/>
<path d="M60.6061 318.182H45.4546V333.333H60.6061V318.182Z" fill="black"/>
<path d="M121.212 318.182H106.061V333.333H121.212V318.182Z" fill="black"/>
<path d="M151.515 318.182H136.364V333.333H151.515V318.182Z" fill="black"/>
<path d="M181.818 318.182H166.667V333.333H181.818V318.182Z" fill="black"/>
<path d="M196.97 318.182H181.818V333.333H196.97V318.182Z" fill="black"/>
<path d="M212.121 318.182H196.97V333.333H212.121V318.182Z" fill="black"/>
<path d="M242.424 318.182H227.273V333.333H242.424V318.182Z" fill="black"/>
<path d="M272.727 318.182H257.576V333.333H272.727V318.182Z" fill="black"/>
<path d="M287.879 318.182H272.727V333.333H287.879V318.182Z" fill="black"/>
<path d="M303.03 318.182H287.879V333.333H303.03V318.182Z" fill="black"/>
<path d="M318.182 318.182H303.03V333.333H318.182V318.182Z" fill="black"/>
<path d="M333.333 318.182H318.182V333.333H333.333V318.182Z" fill="black"/>
<path d="M348.485 318.182H333.333V333.333H348.485V318.182Z" fill="black"/>
<path d="M393.94 318.182H378.788V333.333H393.94V318.182Z" fill="black"/>
<path d="M439.394 318.182H424.242V333.333H439.394V318.182Z" fill="black"/>
<path d="M454.546 318.182H439.394V333.333H454.546V318.182Z" fill="black"/>
<path d="M469.697 318.182H454.545V333.333H469.697V318.182Z" fill="black"/>
<path d="M15.1515 333.333H0V348.485H15.1515V333.333Z" fill="black"/>
<path d="M60.6061 333.333H45.4546V348.485H60.6061V333.333Z" fill="black"/>
<path d="M75.7575 333.333H60.606V348.485H75.7575V333.333Z" fill="black"/>
<path d="M106.061 333.333H90.9092V348.485H106.061V333.333Z" fill="black"/>
<path d="M121.212 333.333H106.061V348.485H121.212V333.333Z" fill="black"/>
<path d="M166.667 333.333H151.515V348.485H166.667V333.333Z" fill="black"/>
<path d="M181.818 333.333H166.667V348.485H181.818V333.333Z" fill="black"/>
<path d="M196.97 333.333H181.818V348.485H196.97V333.333Z" fill="black"/>
<path d="M212.121 333.333H196.97V348.485H212.121V333.333Z" fill="black"/>
<path d="M242.424 333.333H227.273V348.485H242.424V333.333Z" fill="black"/>
<path d="M257.576 333.333H242.424V348.485H257.576V333.333Z" fill="black"/>
<path d="M272.727 333.333H257.576V348.485H272.727V333.333Z" fill="black"/>
<path d="M303.03 333.333H287.879V348.485H303.03V333.333Z" fill="black"/>
<path d="M348.485 333.333H333.333V348.485H348.485V333.333Z" fill="black"/>
<path d="M363.636 333.333H348.485V348.485H363.636V333.333Z" fill="black"/>
<path d="M378.788 333.333H363.636V348.485H378.788V333.333Z" fill="black"/>
<path d="M393.94 333.333H378.788V348.485H393.94V333.333Z" fill="black"/>
<path d="M424.242 333.333H409.091V348.485H424.242V333.333Z" fill="black"/>
<path d="M439.394 333.333H424.242V348.485H439.394V333.333Z" fill="black"/>
<path d="M454.546 333.333H439.394V348.485H454.546V333.333Z" fill="black"/>
<path d="M484.848 333.333H469.697V348.485H484.848V333.333Z" fill="black"/>
<path d="M15.1515 348.485H0V363.636H15.1515V348.485Z" fill="black"/>
<path d="M60.6061 348.485H45.4546V363.636H60.6061V348.485Z" fill="black"/>
<path d="M75.7575 348.485H60.606V363.636H75.7575V348.485Z" fill="black"/>
<path d="M151.515 348.485H136.364V363.636H151.515V348.485Z" fill="black"/>
<path d="M166.667 348.485H151.515V363.636H166.667V348.485Z" fill="black"/>
<path d="M181.818 348.485H166.667V363.636H181.818V348.485Z" fill="black"/>
<path d="M227.273 348.485H212.121V363.636H227.273V348.485Z" fill="black"/>
<path d="M257.576 348.485H242.424V363.636H257.576V348.485Z" fill="black"/>
<path d="M318.182 348.485H303.03V363.636H318.182V348.485Z" fill="black"/>
<path d="M333.333 348.485H318.182V363.636H333.333V348.485Z" fill="black"/>
<path d="M363.636 348.485H348.485V363.636H363.636V348.485Z" fill="black"/>
<path d="M393.94 348.485H378.788V363.636H393.94V348.485Z" fill="black"/>
<path d="M409.091 348.485H393.939V363.636H409.091V348.485Z" fill="black"/>
<path d="M424.242 348.485H409.091V363.636H424.242V348.485Z" fill="black"/>
<path d="M454.546 348.485H439.394V363.636H454.546V348.485Z" fill="black"/>
<path d="M469.697 348.485H454.545V363.636H469.697V348.485Z" fill="black"/>
<path d="M484.848 348.485H469.697V363.636H484.848V348.485Z" fill="black"/>
<path d="M500 348.485H484.849V363.636H500V348.485Z" fill="black"/>
<path d="M15.1515 363.636H0V378.788H15.1515V363.636Z" fill="black"/>
<path d="M45.4545 363.636H30.303V378.788H45.4545V363.636Z" fill="black"/>
<path d="M60.6061 363.636H45.4546V378.788H60.6061V363.636Z" fill="black"/>
<path d="M90.9091 363.636H75.7576V378.788H90.9091V363.636Z" fill="black"/>
<path d="M106.061 363.636H90.9092V378.788H106.061V363.636Z" fill="black"/>
<path d="M121.212 363.636H106.061V378.788H121.212V363.636Z" fill="black"/>
<path d="M136.364 363.636H121.212V378.788H136.364V363.636Z" fill="black"/>
<path d="M151.515 363.636H136.364V378.788H151.515V363.636Z" fill="black"/>
<path d="M196.97 363.636H181.818V378.788H196.97V363.636Z" fill="black"/>
<path d="M272.727 363.636H257.576V378.788H272.727V363.636Z" fill="black"/>
<path d="M287.879 363.636H272.727V378.788H287.879V363.636Z" fill="black"/>
<path d="M303.03 363.636H287.879V378.788H303.03V363.636Z" fill="black"/>
<path d="M318.182 363.636H303.03V378.788H318.182V363.636Z" fill="black"/>
<path d="M348.485 363.636H333.333V378.788H348.485V363.636Z" fill="black"/>
<path d="M363.636 363.636H348.485V378.788H363.636V363.636Z" fill="black"/>
<path d="M378.788 363.636H363.636V378.788H378.788V363.636Z" fill="black"/>
<path d="M393.94 363.636H378.788V378.788H393.94V363.636Z" fill="black"/>
<path d="M409.091 363.636H393.939V378.788H409.091V363.636Z" fill="black"/>
<path d="M424.242 363.636H409.091V378.788H424.242V363.636Z" fill="black"/>
<path d="M439.394 363.636H424.242V378.788H439.394V363.636Z" fill="black"/>
<path d="M469.697 363.636H454.545V378.788H469.697V363.636Z" fill="black"/>
<path d="M484.848 363.636H469.697V378.788H484.848V363.636Z" fill="black"/>
<path d="M136.364 378.788H121.212V393.939H136.364V378.788Z" fill="black"/>
<path d="M181.818 378.788H166.667V393.939H181.818V378.788Z" fill="black"/>
<path d="M212.121 378.788H196.97V393.939H212.121V378.788Z" fill="black"/>
<path d="M227.273 378.788H212.121V393.939H227.273V378.788Z" fill="black"/>
<path d="M257.576 378.788H242.424V393.939H257.576V378.788Z" fill="black"/>
<path d="M272.727 378.788H257.576V393.939H272.727V378.788Z" fill="black"/>
<path d="M303.03 378.788H287.879V393.939H303.03V378.788Z" fill="black"/>
<path d="M318.182 378.788H303.03V393.939H318.182V378.788Z" fill="black"/>
<path d="M333.333 378.788H318.182V393.939H333.333V378.788Z" fill="black"/>
<path d="M363.636 378.788H348.485V393.939H363.636V378.788Z" fill="black"/>
<path d="M378.788 378.788H363.636V393.939H378.788V378.788Z" fill="black"/>
<path d="M439.394 378.788H424.242V393.939H439.394V378.788Z" fill="black"/>
<path d="M454.546 378.788H439.394V393.939H454.546V378.788Z" fill="black"/>
<path d="M469.697 378.788H454.545V393.939H469.697V378.788Z" fill="black"/>
<path d="M484.848 378.788H469.697V393.939H484.848V378.788Z" fill="black"/>
<path d="M500 378.788H484.849V393.939H500V378.788Z" fill="black"/>
<path d="M15.1515 393.939H0V409.091H15.1515V393.939Z" fill="black"/>
<path d="M30.3031 393.939H15.1516V409.091H30.3031V393.939Z" fill="black"/>
<path d="M45.4545 393.939H30.303V409.091H45.4545V393.939Z" fill="black"/>
<path d="M60.6061 393.939H45.4546V409.091H60.6061V393.939Z" fill="black"/>
<path d="M75.7575 393.939H60.606V409.091H75.7575V393.939Z" fill="black"/>
<path d="M90.9091 393.939H75.7576V409.091H90.9091V393.939Z" fill="black"/>
<path d="M106.061 393.939H90.9092V409.091H106.061V393.939Z" fill="black"/>
<path d="M151.515 393.939H136.364V409.091H151.515V393.939Z" fill="black"/>
<path d="M166.667 393.939H151.515V409.091H166.667V393.939Z" fill="black"/>
<path d="M196.97 393.939H181.818V409.091H196.97V393.939Z" fill="black"/>
<path d="M257.576 393.939H242.424V409.091H257.576V393.939Z" fill="black"/>
<path d="M272.727 393.939H257.576V409.091H272.727V393.939Z" fill="black"/>
<path d="M287.879 393.939H272.727V409.091H287.879V393.939Z" fill="black"/>
<path d="M333.333 393.939H318.182V409.091H333.333V393.939Z" fill="black"/>
<path d="M378.788 393.939H363.636V409.091H378.788V393.939Z" fill="black"/>
<path d="M409.091 393.939H393.939V409.091H409.091V393.939Z" fill="black"/>
<path d="M439.394 393.939H424.242V409.091H439.394V393.939Z" fill="black"/>
<path d="M484.848 393.939H469.697V409.091H484.848V393.939Z" fill="black"/>
<path d="M500 393.939H484.849V409.091H500V393.939Z" fill="black"/>
<path d="M15.1515 409.091H0V424.242H15.1515V409.091Z" fill="black"/>
<path d="M106.061 409.091H90.9092V424.242H106.061V409.091Z" fill="black"/>
<path d="M166.667 409.091H151.515V424.242H166.667V409.091Z" fill="black"/>
<path d="M181.818 409.091H166.667V424.242H181.818V409.091Z" fill="black"/>
<path d="M196.97 409.091H181.818V424.242H196.97V409.091Z" fill="black"/>
<path d="M242.424 409.091H227.273V424.242H242.424V409.091Z" fill="black"/>
<path d="M257.576 409.091H242.424V424.242H257.576V409.091Z" fill="black"/>
<path d="M272.727 409.091H257.576V424.242H272.727V409.091Z" fill="black"/>
<path d="M303.03 409.091H287.879V424.242H303.03V409.091Z" fill="black"/>
<path d="M333.333 409.091H318.182V424.242H333.333V409.091Z" fill="black"/>
<path d="M348.485 409.091H333.333V424.242H348.485V409.091Z" fill="black"/>
<path d="M378.788 409.091H363.636V424.242H378.788V409.091Z" fill="black"/>
<path d="M439.394 409.091H424.242V424.242H439.394V409.091Z" fill="black"/>
<path d="M454.546 409.091H439.394V424.242H454.546V409.091Z" fill="black"/>
<path d="M500 409.091H484.849V424.242H500V409.091Z" fill="black"/>
<path d="M15.1515 424.242H0V439.394H15.1515V424.242Z" fill="black"/>
<path d="M45.4545 424.242H30.303V439.394H45.4545V424.242Z" fill="black"/>
<path d="M60.6061 424.242H45.4546V439.394H60.6061V424.242Z" fill="black"/>
<path d="M75.7575 424.242H60.606V439.394H75.7575V424.242Z" fill="black"/>
<path d="M106.061 424.242H90.9092V439.394H106.061V424.242Z" fill="black"/>
<path d="M136.364 424.242H121.212V439.394H136.364V424.242Z" fill="black"/>
<path d="M166.667 424.242H151.515V439.394H166.667V424.242Z" fill="black"/>
<path d="M227.273 424.242H212.121V439.394H227.273V424.242Z" fill="black"/>
<path d="M257.576 424.242H242.424V439.394H257.576V424.242Z" fill="black"/>
<path d="M272.727 424.242H257.576V439.394H272.727V424.242Z" fill="black"/>
<path d="M287.879 424.242H272.727V439.394H287.879V424.242Z" fill="black"/>
<path d="M318.182 424.242H303.03V439.394H318.182V424.242Z" fill="black"/>
<path d="M333.333 424.242H318.182V439.394H333.333V424.242Z" fill="black"/>
<path d="M378.788 424.242H363.636V439.394H378.788V424.242Z" fill="black"/>
<path d="M393.94 424.242H378.788V439.394H393.94V424.242Z" fill="black"/>
<path d="M409.091 424.242H393.939V439.394H409.091V424.242Z" fill="black"/>
<path d="M424.242 424.242H409.091V439.394H424.242V424.242Z" fill="black"/>
<path d="M439.394 424.242H424.242V439.394H439.394V424.242Z" fill="black"/>
<path d="M454.546 424.242H439.394V439.394H454.546V424.242Z" fill="black"/>
<path d="M15.1515 439.394H0V454.546H15.1515V439.394Z" fill="black"/>
<path d="M45.4545 439.394H30.303V454.546H45.4545V439.394Z" fill="black"/>
<path d="M60.6061 439.394H45.4546V454.546H60.6061V439.394Z" fill="black"/>
<path d="M75.7575 439.394H60.606V454.546H75.7575V439.394Z" fill="black"/>
<path d="M106.061 439.394H90.9092V454.546H106.061V439.394Z" fill="black"/>
<path d="M136.364 439.394H121.212V454.546H136.364V439.394Z" fill="black"/>
<path d="M151.515 439.394H136.364V454.546H151.515V439.394Z" fill="black"/>
<path d="M166.667 439.394H151.515V454.546H166.667V439.394Z" fill="black"/>
<path d="M196.97 439.394H181.818V454.546H196.97V439.394Z" fill="black"/>
<path d="M227.273 439.394H212.121V454.546H227.273V439.394Z" fill="black"/>
<path d="M242.424 439.394H227.273V454.546H242.424V439.394Z" fill="black"/>
<path d="M287.879 439.394H272.727V454.546H287.879V439.394Z" fill="black"/>
<path d="M318.182 439.394H303.03V454.546H318.182V439.394Z" fill="black"/>
<path d="M333.333 439.394H318.182V454.546H333.333V439.394Z" fill="black"/>
<path d="M348.485 439.394H333.333V454.546H348.485V439.394Z" fill="black"/>
<path d="M393.94 439.394H378.788V454.546H393.94V439.394Z" fill="black"/>
<path d="M424.242 439.394H409.091V454.546H424.242V439.394Z" fill="black"/>
<path d="M469.697 439.394H454.545V454.546H469.697V439.394Z" fill="black"/>
<path d="M484.848 439.394H469.697V454.546H484.848V439.394Z" fill="black"/>
<path d="M15.1515 454.545H0V469.697H15.1515V454.545Z" fill="black"/>
<path d="M45.4545 454.545H30.303V469.697H45.4545V454.545Z" fill="black"/>
<path d="M60.6061 454.545H45.4546V469.697H60.6061V454.545Z" fill="black"/>
<path d="M75.7575 454.545H60.606V469.697H75.7575V454.545Z" fill="black"/>
<path d="M106.061 454.545H90.9092V469.697H106.061V454.545Z" fill="black"/>
<path d="M136.364 454.545H121.212V469.697H136.364V454.545Z" fill="black"/>
<path d="M166.667 454.545H151.515V469.697H166.667V454.545Z" fill="black"/>
<path d="M227.273 454.545H212.121V469.697H227.273V454.545Z" fill="black"/>
<path d="M257.576 454.545H242.424V469.697H257.576V454.545Z" fill="black"/>
<path d="M348.485 454.545H333.333V469.697H348.485V454.545Z" fill="black"/>
<path d="M363.636 454.545H348.485V469.697H363.636V454.545Z" fill="black"/>
<path d="M378.788 454.545H363.636V469.697H378.788V454.545Z" fill="black"/>
<path d="M424.242 454.545H409.091V469.697H424.242V454.545Z" fill="black"/>
<path d="M439.394 454.545H424.242V469.697H439.394V454.545Z" fill="black"/>
<path d="M454.546 454.545H439.394V469.697H454.546V454.545Z" fill="black"/>
<path d="M469.697 454.545H454.545V469.697H469.697V454.545Z" fill="black"/>
<path d="M15.1515 469.697H0V484.849H15.1515V469.697Z" fill="black"/>
<path d="M106.061 469.697H90.9092V484.849H106.061V469.697Z" fill="black"/>
<path d="M166.667 469.697H151.515V484.849H166.667V469.697Z" fill="black"/>
<path d="M257.576 469.697H242.424V484.849H257.576V469.697Z" fill="black"/>
<path d="M272.727 469.697H257.576V484.849H272.727V469.697Z" fill="black"/>
<path d="M287.879 469.697H272.727V484.849H287.879V469.697Z" fill="black"/>
<path d="M303.03 469.697H287.879V484.849H303.03V469.697Z" fill="black"/>
<path d="M333.333 469.697H318.182V484.849H333.333V469.697Z" fill="black"/>
<path d="M363.636 469.697H348.485V484.849H363.636V469.697Z" fill="black"/>
<path d="M378.788 469.697H363.636V484.849H378.788V469.697Z" fill="black"/>
<path d="M393.94 469.697H378.788V484.849H393.94V469.697Z" fill="black"/>
<path d="M424.242 469.697H409.091V484.849H424.242V469.697Z" fill="black"/>
<path d="M439.394 469.697H424.242V484.849H439.394V469.697Z" fill="black"/>
<path d="M469.697 469.697H454.545V484.849H469.697V469.697Z" fill="black"/>
<path d="M484.848 469.697H469.697V484.849H484.848V469.697Z" fill="black"/>
<path d="M500 469.697H484.849V484.849H500V469.697Z" fill="black"/>
<path d="M15.1515 484.849H0V500H15.1515V484.849Z" fill="black"/>
<path d="M30.3031 484.849H15.1516V500H30.3031V484.849Z" fill="black"/>
<path d="M45.4545 484.849H30.303V500H45.4545V484.849Z" fill="black"/>
<path d="M60.6061 484.849H45.4546V500H60.6061V484.849Z" fill="black"/>
<path d="M75.7575 484.849H60.606V500H75.7575V484.849Z" fill="black"/>
<path d="M90.9091 484.849H75.7576V500H90.9091V484.849Z" fill="black"/>
<path d="M106.061 484.849H90.9092V500H106.061V484.849Z" fill="black"/>
<path d="M166.667 484.849H151.515V500H166.667V484.849Z" fill="black"/>
<path d="M196.97 484.849H181.818V500H196.97V484.849Z" fill="black"/>
<path d="M227.273 484.849H212.121V500H227.273V484.849Z" fill="black"/>
<path d="M242.424 484.849H227.273V500H242.424V484.849Z" fill="black"/>
<path d="M257.576 484.849H242.424V500H257.576V484.849Z" fill="black"/>
<path d="M272.727 484.849H257.576V500H272.727V484.849Z" fill="black"/>
<path d="M333.333 484.849H318.182V500H333.333V484.849Z" fill="black"/>
<path d="M348.485 484.849H333.333V500H348.485V484.849Z" fill="black"/>
<path d="M363.636 484.849H348.485V500H363.636V484.849Z" fill="black"/>
<path d="M378.788 484.849H363.636V500H378.788V484.849Z" fill="black"/>
<path d="M409.091 484.849H393.939V500H409.091V484.849Z" fill="black"/>
<path d="M454.546 484.849H439.394V500H454.546V484.849Z" fill="black"/>
<path d="M469.697 484.849H454.545V500H469.697V484.849Z" fill="black"/>
<path d="M484.848 484.849H469.697V500H484.848V484.849Z" fill="black"/>
</g>
<defs>
<clipPath id="clip0_67_583">
<rect width="500" height="500" fill="white"/>
</clipPath>
</defs>
</svg>
