<?xml version="1.0" standalone="no"?>
<!DOCTYPE svg PUBLIC "-//W3C//DTD SVG 20010904//EN"
 "http://www.w3.org/TR/2001/REC-SVG-20010904/DTD/svg10.dtd">
<svg version="1.0" xmlns="http://www.w3.org/2000/svg"
 width="704.000000pt" height="704.000000pt" viewBox="0 0 704.000000 704.000000"
 preserveAspectRatio="xMidYMid meet">
<metadata>
Created by potrace 1.11, written by Peter Selinger 2001-2013
</metadata>
<g transform="translate(0.000000,704.000000) scale(0.100000,-0.100000)"
fill="#000000" stroke="none">
<path d="M3396 7033 c-28 -7 -67 -33 -283 -189 -106 -77 -243 -175 -305 -219
-62 -44 -118 -84 -124 -90 -15 -13 -189 -137 -212 -150 -9 -5 -19 -12 -22 -15
-3 -3 -21 -17 -40 -30 -19 -13 -41 -30 -48 -37 -7 -7 -16 -13 -20 -13 -4 0
-23 -14 -42 -30 -19 -16 -40 -30 -47 -30 -6 0 -13 -4 -15 -8 -3 -7 -257 -194
-296 -217 -9 -5 -19 -12 -22 -16 -3 -3 -57 -42 -120 -87 -63 -45 -124 -88
-135 -96 -58 -42 -353 -253 -372 -266 -55 -38 -259 -185 -263 -190 -3 -3 -27
-21 -55 -40 -27 -19 -51 -38 -53 -42 -2 -4 -9 -8 -16 -8 -10 0 -24 -14 -71
-73 -36 -45 -35 -13 -35 -1914 0 -1242 4 -1870 10 -1895 25 -88 2 -75 1224
-688 627 -314 1146 -575 1153 -581 7 -7 13 -9 13 -7 0 3 28 -10 63 -28 118
-63 131 -68 192 -68 60 -1 65 2 1135 537 591 297 1082 543 1090 547 8 4 38 19
65 32 28 12 53 27 56 31 3 5 9 8 13 8 10 -1 141 63 144 71 2 4 12 8 21 8 26 0
98 71 117 116 15 36 17 188 16 1899 0 2055 5 1896 -64 1961 -18 18 -78 63
-133 102 -55 39 -105 75 -110 80 -6 5 -24 17 -40 28 -17 10 -36 25 -44 32 -8
7 -26 21 -40 30 -14 9 -44 30 -66 47 -22 16 -48 35 -57 40 -9 6 -72 51 -139
100 -68 50 -133 97 -145 105 -70 48 -220 155 -224 160 -3 4 -27 22 -55 40 -27
19 -54 38 -60 43 -5 4 -161 116 -345 248 -184 132 -344 247 -355 255 -11 8
-83 60 -160 115 -77 55 -149 107 -160 115 -11 8 -85 61 -165 118 -80 57 -156
113 -170 123 -47 37 -123 51 -184 36z m-151 -3555 c0 -2020 -4 -2912 -11
-2911 -10 2 -415 200 -1129 553 -203 101 -372 184 -375 184 -3 1 -118 57 -257
125 l-251 125 0 1698 -1 1698 37 27 c20 16 41 32 47 36 5 4 35 25 65 47 30 22
60 43 65 47 6 5 89 64 185 133 96 68 177 127 178 132 2 4 8 8 13 8 5 0 45 26
88 58 44 31 108 77 142 102 34 25 87 62 118 83 31 21 58 42 61 46 3 4 16 14
29 21 14 7 30 17 35 21 42 33 80 61 144 104 39 27 72 52 72 57 0 4 7 8 15 8 8
0 15 5 15 10 0 6 7 10 15 10 8 0 15 5 15 10 0 6 4 10 10 10 5 0 18 7 27 15 10
8 65 48 123 89 58 41 110 80 117 85 7 6 16 11 22 11 5 0 11 4 13 8 2 5 26 23
53 42 28 19 55 38 60 43 6 4 62 45 125 90 63 45 117 85 118 90 2 4 7 5 11 3 3
-3 6 -1315 6 -2918z m575 2810 c78 -57 149 -107 157 -113 9 -5 24 -15 32 -22
9 -7 70 -51 136 -97 66 -47 125 -89 130 -94 6 -5 24 -17 40 -28 17 -10 35 -22
40 -27 6 -4 20 -15 32 -25 27 -21 438 -313 460 -327 9 -5 24 -15 32 -22 9 -7
63 -46 121 -87 58 -41 110 -80 117 -86 7 -5 15 -10 18 -10 4 0 12 -6 19 -12 8
-7 24 -20 36 -28 13 -8 35 -24 49 -35 14 -12 105 -77 201 -145 96 -68 177
-127 178 -132 2 -4 9 -8 16 -8 7 0 22 -10 34 -22 l21 -23 -1 -1686 c0 -928 -3
-1691 -7 -1697 -6 -9 -506 -259 -1041 -518 -129 -63 -243 -119 -252 -124 -10
-6 -26 -14 -35 -20 -44 -24 -675 -330 -682 -330 -4 0 -7 1310 -7 2910 0 1601
3 2910 7 2910 4 0 71 -46 149 -102z"/>
<path d="M2470 5359 c-42 -8 -118 -37 -130 -49 -3 -3 -18 -12 -35 -20 -16 -8
-32 -17 -35 -20 -3 -3 -34 -25 -70 -50 -63 -43 -357 -251 -491 -347 l-66 -47
0 -1558 0 -1557 71 -34 c258 -127 343 -167 349 -167 3 0 6 343 6 761 0 419 2
763 4 766 2 2 35 3 73 3 38 0 80 0 94 1 48 1 85 1 95 -1 33 -6 256 6 290 15
100 27 167 113 189 240 16 92 19 207 19 900 -1 882 -1 899 -54 1012 -57 121
-171 177 -309 152z m-77 -553 c11 -12 13 -118 12 -663 -1 -429 -5 -654 -12
-667 -9 -16 -24 -18 -162 -18 -84 0 -155 2 -158 5 -2 3 -5 265 -4 583 0 459 3
579 13 585 11 6 103 72 177 126 92 69 108 74 134 49z"/>
<path d="M4325 5343 c-116 -28 -211 -146 -231 -286 -7 -49 -12 -414 -6 -438 2
-9 13 -21 25 -27 12 -5 31 -17 42 -26 37 -31 299 -216 305 -216 3 0 5 101 5
225 -1 325 -11 320 275 116 30 -22 68 -51 84 -64 l30 -24 0 -514 c1 -497 0
-515 -19 -548 -39 -67 -61 -75 -203 -78 -70 -1 -137 -2 -150 -2 l-23 -1 1
-210 1 -209 89 1 c48 0 93 -2 98 -6 6 -3 13 -2 16 3 3 5 28 4 58 -1 56 -10
101 -43 121 -88 15 -34 20 -904 5 -942 -8 -22 -40 -42 -164 -103 -97 -49 -161
-74 -172 -71 -38 12 -45 49 -48 229 -1 94 -3 173 -3 174 -1 2 -191 -90 -221
-107 -8 -5 -47 -24 -86 -43 l-71 -35 3 -138 c4 -165 10 -220 35 -309 16 -55
46 -122 59 -130 6 -3 8 -10 5 -15 -3 -4 18 -29 46 -54 71 -64 141 -83 234 -62
72 16 72 16 425 189 36 18 67 35 68 40 2 4 11 7 20 7 10 0 28 9 42 20 14 11
29 20 33 20 4 0 32 18 62 41 88 66 128 134 154 256 9 42 8 1034 -1 1063 -3 8
-10 35 -17 60 -16 59 -53 115 -112 170 l-48 45 27 19 c32 21 82 85 110 141 35
69 49 167 48 342 -1 90 2 163 6 163 4 0 3 13 -2 29 -4 15 -4 34 0 41 5 7 4 23
0 36 -5 12 -6 24 -3 27 8 8 7 302 -1 316 -4 6 -4 11 1 11 10 0 8 172 -2 250
-8 61 -28 127 -55 180 -32 62 -85 114 -196 190 -60 41 -110 78 -112 82 -2 4
-8 8 -14 8 -6 0 -27 13 -47 28 -93 74 -264 182 -317 202 -57 21 -167 33 -209
23z"/>
</g>
</svg>
